<mxfile host="app.diagrams.net" modified="2024-03-05T00:13:52.042Z" agent="Mozilla/5.0 (iPad; CPU OS 17_3 like Mac OS X) AppleWebKit/605.1.15 (KHTML, like Gecko) CriOS/122.0.6261.62 Mobile/15E148 Safari/604.1" etag="DaJ4hQi6Mlt0jTfwZ8nx" version="24.0.0" type="github">
  <diagram id="sOR52nLM6op6zg1yEuvo" name="Page-1">
    <mxGraphModel dx="7000" dy="3490" grid="0" gridSize="10" guides="1" tooltips="0" connect="1" arrows="1" fold="1" page="0" pageScale="1" pageWidth="850" pageHeight="1100" math="0" shadow="0">
      <root>
        <mxCell id="0" />
        <mxCell id="1" parent="0" />
        <mxCell id="ho_QNDPHe2phtKsIch2--1" value="AWS Cloud" style="sketch=0;outlineConnect=0;gradientColor=none;html=1;whiteSpace=wrap;fontSize=12;fontStyle=0;shape=mxgraph.aws4.group;grIcon=mxgraph.aws4.group_aws_cloud;strokeColor=#333333;fillColor=none;verticalAlign=top;align=left;spacingLeft=30;fontColor=#AAB7B8;dashed=0;" parent="1" vertex="1">
          <mxGeometry x="-680" y="-570" width="2650" height="1730" as="geometry" />
        </mxCell>
        <mxCell id="ho_QNDPHe2phtKsIch2--4" value="" style="rounded=0;whiteSpace=wrap;html=1;" parent="1" vertex="1">
          <mxGeometry x="-520" y="-460" width="1280" height="780" as="geometry" />
        </mxCell>
        <mxCell id="ho_QNDPHe2phtKsIch2--8" value="" style="edgeStyle=orthogonalEdgeStyle;html=1;endArrow=block;elbow=vertical;startArrow=block;startFill=1;endFill=1;strokeColor=#CC0066;rounded=0;fontSize=12;startSize=8;endSize=8;" parent="1" edge="1">
          <mxGeometry width="100" relative="1" as="geometry">
            <mxPoint x="-850" y="140" as="sourcePoint" />
            <mxPoint x="-430" y="140.25" as="targetPoint" />
          </mxGeometry>
        </mxCell>
        <mxCell id="ho_QNDPHe2phtKsIch2--11" value="Amazon Route 53" style="sketch=0;outlineConnect=0;fontColor=#232F3E;gradientColor=none;strokeColor=#ffffff;fillColor=#CC0066;dashed=0;verticalLabelPosition=middle;verticalAlign=bottom;align=center;html=1;whiteSpace=wrap;fontSize=20;fontStyle=1;spacing=3;shape=mxgraph.aws4.productIcon;prIcon=mxgraph.aws4.route_53;" parent="1" vertex="1">
          <mxGeometry x="-420" y="50" width="200" height="230" as="geometry" />
        </mxCell>
        <mxCell id="ho_QNDPHe2phtKsIch2--16" value="" style="edgeStyle=orthogonalEdgeStyle;html=1;endArrow=block;elbow=vertical;startArrow=none;endFill=1;strokeColor=#CC0066;rounded=0;fontSize=12;startSize=8;endSize=8;" parent="1" target="ho_QNDPHe2phtKsIch2--18" edge="1">
          <mxGeometry width="100" relative="1" as="geometry">
            <mxPoint x="-220" y="81" as="sourcePoint" />
            <mxPoint x="-40" y="80.43" as="targetPoint" />
            <Array as="points">
              <mxPoint x="-220" y="140" />
            </Array>
          </mxGeometry>
        </mxCell>
        <mxCell id="ho_QNDPHe2phtKsIch2--18" value="Amazon Cloudfront" style="sketch=0;outlineConnect=0;fontColor=#232F3E;gradientColor=none;strokeColor=#ffffff;fillColor=#CC0066;dashed=0;verticalLabelPosition=middle;verticalAlign=bottom;align=center;html=1;whiteSpace=wrap;fontSize=20;fontStyle=1;spacing=3;shape=mxgraph.aws4.productIcon;prIcon=mxgraph.aws4.cloudfront;" parent="1" vertex="1">
          <mxGeometry x="20" y="50" width="200" height="230" as="geometry" />
        </mxCell>
        <mxCell id="uRbqpiN91J64nY8Mzn4r-3" value="&lt;font style=&quot;font-size: 20px;&quot;&gt;Amazon S3&lt;/font&gt;" style="sketch=0;outlineConnect=0;fontColor=#232F3E;gradientColor=none;strokeColor=#ffffff;fillColor=#CC0066;dashed=0;verticalLabelPosition=middle;verticalAlign=bottom;align=center;html=1;whiteSpace=wrap;fontSize=10;fontStyle=1;spacing=3;shape=mxgraph.aws4.productIcon;prIcon=mxgraph.aws4.s3;" parent="1" vertex="1">
          <mxGeometry x="480" y="40" width="200" height="230" as="geometry" />
        </mxCell>
        <mxCell id="uRbqpiN91J64nY8Mzn4r-8" value="" style="edgeStyle=orthogonalEdgeStyle;html=1;endArrow=block;elbow=vertical;startArrow=none;endFill=1;strokeColor=#CC0066;rounded=0;fontSize=12;startSize=8;endSize=8;" parent="1" edge="1">
          <mxGeometry width="100" relative="1" as="geometry">
            <mxPoint x="220" y="140" as="sourcePoint" />
            <mxPoint x="470" y="141" as="targetPoint" />
            <Array as="points">
              <mxPoint x="340" y="141" />
              <mxPoint x="340" y="141" />
            </Array>
          </mxGeometry>
        </mxCell>
        <mxCell id="uRbqpiN91J64nY8Mzn4r-12" value="&lt;font style=&quot;font-size: 20px;&quot;&gt;AWS Certificate Manager&lt;/font&gt;" style="sketch=0;outlineConnect=0;fontColor=#232F3E;gradientColor=none;strokeColor=#ffffff;fillColor=#CC0066;dashed=0;verticalLabelPosition=middle;verticalAlign=bottom;align=center;html=1;whiteSpace=wrap;fontSize=10;fontStyle=1;spacing=3;shape=mxgraph.aws4.productIcon;prIcon=mxgraph.aws4.certificate_manager_3;" parent="1" vertex="1">
          <mxGeometry x="20" y="-420" width="200" height="270" as="geometry" />
        </mxCell>
        <mxCell id="uRbqpiN91J64nY8Mzn4r-14" value="" style="rounded=0;whiteSpace=wrap;html=1;" parent="1" vertex="1">
          <mxGeometry x="230" y="510" width="1540" height="540" as="geometry" />
        </mxCell>
        <mxCell id="uRbqpiN91J64nY8Mzn4r-17" value="" style="edgeStyle=orthogonalEdgeStyle;html=1;endArrow=block;elbow=vertical;startArrow=none;endFill=1;strokeColor=#CC0066;rounded=0;" parent="1" edge="1">
          <mxGeometry width="100" relative="1" as="geometry">
            <mxPoint x="118" y="-150" as="sourcePoint" />
            <mxPoint x="118" y="30" as="targetPoint" />
          </mxGeometry>
        </mxCell>
        <mxCell id="uRbqpiN91J64nY8Mzn4r-18" value="&lt;font style=&quot;font-size: 20px;&quot;&gt;&lt;b&gt;FRONTEND&lt;/b&gt;&lt;/font&gt;" style="rounded=1;whiteSpace=wrap;html=1;" parent="1" vertex="1">
          <mxGeometry x="-490" y="-430" width="310" height="70" as="geometry" />
        </mxCell>
        <mxCell id="uRbqpiN91J64nY8Mzn4r-27" value="&lt;font style=&quot;font-size: 20px;&quot;&gt;&lt;b&gt;BACKFRONT&lt;/b&gt;&lt;/font&gt;" style="rounded=1;whiteSpace=wrap;html=1;" parent="1" vertex="1">
          <mxGeometry x="270" y="940" width="350" height="70" as="geometry" />
        </mxCell>
        <mxCell id="uRbqpiN91J64nY8Mzn4r-28" value="&lt;font style=&quot;font-size: 20px;&quot;&gt;AWS Lambda&lt;/font&gt;" style="sketch=0;outlineConnect=0;fontColor=#232F3E;gradientColor=none;strokeColor=#ffffff;fillColor=#CC0066;dashed=0;verticalLabelPosition=middle;verticalAlign=bottom;align=center;html=1;whiteSpace=wrap;fontSize=10;fontStyle=1;spacing=3;shape=mxgraph.aws4.productIcon;prIcon=mxgraph.aws4.lambda;" parent="1" vertex="1">
          <mxGeometry x="300" y="630" width="200" height="230" as="geometry" />
        </mxCell>
        <mxCell id="uRbqpiN91J64nY8Mzn4r-29" value="" style="edgeStyle=orthogonalEdgeStyle;html=1;endArrow=block;elbow=vertical;startArrow=none;endFill=1;strokeColor=#CC0066;rounded=0;" parent="1" edge="1">
          <mxGeometry width="100" relative="1" as="geometry">
            <mxPoint x="600" y="270" as="sourcePoint" />
            <mxPoint x="410" y="610" as="targetPoint" />
            <Array as="points">
              <mxPoint x="600" y="365" />
              <mxPoint x="410" y="365" />
            </Array>
          </mxGeometry>
        </mxCell>
        <mxCell id="uRbqpiN91J64nY8Mzn4r-31" value="" style="edgeStyle=orthogonalEdgeStyle;html=1;endArrow=open;elbow=vertical;startArrow=none;endFill=0;strokeColor=#CC0066;rounded=0;" parent="1" target="uRbqpiN91J64nY8Mzn4r-32" edge="1">
          <mxGeometry width="100" relative="1" as="geometry">
            <mxPoint x="500" y="743" as="sourcePoint" />
            <mxPoint x="880" y="744" as="targetPoint" />
            <Array as="points">
              <mxPoint x="820" y="744" />
            </Array>
          </mxGeometry>
        </mxCell>
        <mxCell id="uRbqpiN91J64nY8Mzn4r-32" value="&lt;font style=&quot;font-size: 20px;&quot;&gt;Amazon API Gateway&lt;/font&gt;" style="sketch=0;outlineConnect=0;fontColor=#232F3E;gradientColor=none;strokeColor=#ffffff;fillColor=#CC0066;dashed=0;verticalLabelPosition=middle;verticalAlign=bottom;align=center;html=1;whiteSpace=wrap;fontSize=10;fontStyle=1;spacing=3;shape=mxgraph.aws4.productIcon;prIcon=mxgraph.aws4.api_gateway;" parent="1" vertex="1">
          <mxGeometry x="890" y="630" width="200" height="262" as="geometry" />
        </mxCell>
        <mxCell id="uRbqpiN91J64nY8Mzn4r-33" value="" style="edgeStyle=orthogonalEdgeStyle;html=1;endArrow=open;elbow=vertical;startArrow=none;endFill=0;strokeColor=#CC0066;rounded=0;" parent="1" edge="1">
          <mxGeometry width="100" relative="1" as="geometry">
            <mxPoint x="1090" y="744" as="sourcePoint" />
            <mxPoint x="1480" y="744" as="targetPoint" />
            <Array as="points">
              <mxPoint x="1410" y="745" />
            </Array>
          </mxGeometry>
        </mxCell>
        <mxCell id="uRbqpiN91J64nY8Mzn4r-35" value="&lt;font style=&quot;font-size: 20px;&quot;&gt;Amazon DynamoDB&lt;/font&gt;" style="sketch=0;outlineConnect=0;fontColor=#232F3E;gradientColor=none;strokeColor=#ffffff;fillColor=#CC0066;dashed=0;verticalLabelPosition=middle;verticalAlign=bottom;align=center;html=1;whiteSpace=wrap;fontSize=10;fontStyle=1;spacing=3;shape=mxgraph.aws4.productIcon;prIcon=mxgraph.aws4.dynamodb;" parent="1" vertex="1">
          <mxGeometry x="1490" y="630" width="200" height="230" as="geometry" />
        </mxCell>
        <mxCell id="E-9p-7XSY3cqO4TCZSZA-7" value="" style="shape=image;html=1;verticalAlign=top;verticalLabelPosition=bottom;labelBackgroundColor=#ffffff;imageAspect=0;aspect=fixed;image=https://cdn4.iconfinder.com/data/icons/ionicons/512/icon-social-github-outline-128.png" parent="1" vertex="1">
          <mxGeometry x="2280" y="300" width="300" height="300" as="geometry" />
        </mxCell>
        <mxCell id="E-9p-7XSY3cqO4TCZSZA-8" value="" style="endArrow=classic;html=1;rounded=0;entryX=0.953;entryY=0.846;entryDx=0;entryDy=0;entryPerimeter=0;strokeColor=#CC0066;" parent="1" edge="1">
          <mxGeometry width="50" height="50" relative="1" as="geometry">
            <mxPoint x="2440" y="290" as="sourcePoint" />
            <mxPoint x="699.8400000000001" y="139.99999999999966" as="targetPoint" />
            <Array as="points">
              <mxPoint x="2440" y="140.12" />
            </Array>
          </mxGeometry>
        </mxCell>
        <mxCell id="E-9p-7XSY3cqO4TCZSZA-9" style="edgeStyle=none;rounded=0;orthogonalLoop=1;jettySize=auto;html=1;entryX=0.5;entryY=0;entryDx=0;entryDy=0;strokeColor=default;align=center;verticalAlign=middle;fontFamily=Helvetica;fontSize=11;fontColor=default;labelBackgroundColor=default;endArrow=classic;" parent="1" source="E-9p-7XSY3cqO4TCZSZA-7" target="E-9p-7XSY3cqO4TCZSZA-7" edge="1">
          <mxGeometry relative="1" as="geometry" />
        </mxCell>
        <mxCell id="E-9p-7XSY3cqO4TCZSZA-16" value="&lt;font style=&quot;font-size: 38px;&quot;&gt;GitHub&lt;/font&gt;" style="text;html=1;align=center;verticalAlign=middle;resizable=0;points=[];autosize=1;strokeColor=none;fillColor=none;fontFamily=Helvetica;fontSize=11;fontColor=default;labelBackgroundColor=default;" parent="1" vertex="1">
          <mxGeometry x="2360" y="610" width="140" height="60" as="geometry" />
        </mxCell>
        <mxCell id="E-9p-7XSY3cqO4TCZSZA-20" value="&lt;font style=&quot;font-size: 38px;&quot;&gt;Client&lt;/font&gt;" style="sketch=0;outlineConnect=0;fontColor=#232F3E;gradientColor=none;strokeColor=#232F3E;fillColor=#ffffff;dashed=0;verticalLabelPosition=bottom;verticalAlign=top;align=center;html=1;fontSize=12;fontStyle=0;aspect=fixed;shape=mxgraph.aws4.resourceIcon;resIcon=mxgraph.aws4.client;fontFamily=Helvetica;labelBackgroundColor=default;" parent="1" vertex="1">
          <mxGeometry x="-1160" y="20" width="270" height="270" as="geometry" />
        </mxCell>
      </root>
    </mxGraphModel>
  </diagram>
</mxfile>
